<?xml version="1.0" standalone="no"?>
<!DOCTYPE svg PUBLIC "-//W3C//DTD SVG 20010904//EN"
 "http://www.w3.org/TR/2001/REC-SVG-20010904/DTD/svg10.dtd">
<svg version="1.0" xmlns="http://www.w3.org/2000/svg"
 width="128.000000pt" height="128.000000pt" viewBox="0 0 128.000000 128.000000"
 preserveAspectRatio="xMidYMid meet">

<g transform="translate(0.000000,128.000000) scale(0.100000,-0.100000)"
fill="#000000" stroke="none">
<path d="M524 1265 c-390 -86 -603 -513 -435 -872 l30 -63 -54 -157 c-30 -87
-51 -159 -46 -161 5 -2 82 20 171 49 l161 51 57 -25 c89 -39 157 -50 278 -45
90 4 122 10 186 35 148 58 262 163 334 305 66 131 82 285 44 433 -80 313 -412
519 -726 450z m267 -111 c83 -25 147 -61 207 -118 104 -98 158 -209 168 -345
22 -292 -221 -552 -516 -551 -83 1 -138 13 -221 51 l-67 31 -85 -26 c-47 -14
-90 -26 -95 -26 -6 0 3 40 20 90 l30 90 -30 52 c-45 79 -62 149 -62 254 0 112
23 195 78 280 67 103 165 178 280 215 74 23 218 25 293 3z"/>
<path d="M392 929 c-36 -37 -57 -105 -47 -156 19 -105 147 -274 261 -346 62
-38 169 -77 214 -77 83 0 150 51 150 116 0 30 -5 36 -63 69 -35 19 -73 35 -84
35 -12 0 -32 -15 -47 -35 -15 -19 -35 -35 -44 -35 -51 0 -180 108 -218 182
-13 25 -12 30 16 70 l30 43 -26 70 c-34 89 -39 95 -79 95 -23 0 -41 -9 -63
-31z"/>
</g>
</svg>
